<mxfile host="app.diagrams.net" modified="2024-03-15T00:02:54.711Z" agent="Mozilla/5.0 (Windows NT 10.0; Win64; x64; rv:123.0) Gecko/20100101 Firefox/123.0" etag="ysP_zNOocWOVymNXFArE" version="23.1.5" type="device">
  <diagram name="Page-1" id="Y6VCHTXHdAITzdMYwSo2">
    <mxGraphModel dx="1050" dy="654" grid="1" gridSize="10" guides="1" tooltips="1" connect="1" arrows="1" fold="1" page="1" pageScale="1" pageWidth="850" pageHeight="1100" math="0" shadow="0">
      <root>
        <mxCell id="0" />
        <mxCell id="1" parent="0" />
        <mxCell id="DX7jJyt_D23_pQjX9NbW-1" value="Gecko Connector" style="rounded=0;whiteSpace=wrap;html=1;" parent="1" vertex="1">
          <mxGeometry x="100" y="180" width="120" height="60" as="geometry" />
        </mxCell>
        <mxCell id="DX7jJyt_D23_pQjX9NbW-6" value="+5V_SW" style="endArrow=classic;html=1;rounded=0;exitX=1;exitY=0;exitDx=0;exitDy=0;startArrow=classic;startFill=1;endFill=1;" parent="1" source="DX7jJyt_D23_pQjX9NbW-1" edge="1">
          <mxGeometry width="50" height="50" relative="1" as="geometry">
            <mxPoint x="220" y="102" as="sourcePoint" />
            <mxPoint x="820" y="80" as="targetPoint" />
            <Array as="points">
              <mxPoint x="220" y="80" />
            </Array>
          </mxGeometry>
        </mxCell>
        <mxCell id="DX7jJyt_D23_pQjX9NbW-7" value="+24V" style="endArrow=classic;html=1;rounded=0;exitX=1;exitY=0;exitDx=0;exitDy=0;endFill=1;" parent="1" edge="1">
          <mxGeometry width="50" height="50" relative="1" as="geometry">
            <mxPoint x="220" y="240" as="sourcePoint" />
            <mxPoint x="220" y="320" as="targetPoint" />
          </mxGeometry>
        </mxCell>
        <mxCell id="DX7jJyt_D23_pQjX9NbW-8" value="24V to 13V" style="rounded=0;whiteSpace=wrap;html=1;" parent="1" vertex="1">
          <mxGeometry x="330" y="290" width="120" height="60" as="geometry" />
        </mxCell>
        <mxCell id="DX7jJyt_D23_pQjX9NbW-9" value="" style="endArrow=classic;html=1;rounded=0;endFill=1;entryX=0;entryY=0;entryDx=0;entryDy=0;" parent="1" target="DX7jJyt_D23_pQjX9NbW-27" edge="1">
          <mxGeometry width="50" height="50" relative="1" as="geometry">
            <mxPoint x="450" y="320" as="sourcePoint" />
            <mxPoint x="590" y="320" as="targetPoint" />
            <Array as="points">
              <mxPoint x="580" y="320" />
            </Array>
          </mxGeometry>
        </mxCell>
        <mxCell id="DX7jJyt_D23_pQjX9NbW-11" value="&lt;div&gt;+13V&lt;/div&gt;" style="edgeLabel;html=1;align=center;verticalAlign=middle;resizable=0;points=[];" parent="DX7jJyt_D23_pQjX9NbW-9" vertex="1" connectable="0">
          <mxGeometry x="0.0091" y="-1" relative="1" as="geometry">
            <mxPoint as="offset" />
          </mxGeometry>
        </mxCell>
        <mxCell id="DX7jJyt_D23_pQjX9NbW-12" value="12V to 5V" style="rounded=0;whiteSpace=wrap;html=1;" parent="1" vertex="1">
          <mxGeometry x="590" y="180" width="120" height="60" as="geometry" />
        </mxCell>
        <mxCell id="DX7jJyt_D23_pQjX9NbW-16" value="&lt;div&gt;5V to 5V_SW&lt;/div&gt;CTRL: EN_5V" style="shape=parallelogram;perimeter=parallelogramPerimeter;whiteSpace=wrap;html=1;fixedSize=1;" parent="1" vertex="1">
          <mxGeometry x="920" y="180" width="120" height="60" as="geometry" />
        </mxCell>
        <mxCell id="DX7jJyt_D23_pQjX9NbW-17" value="" style="endArrow=classic;html=1;rounded=0;exitX=1;exitY=0.5;exitDx=0;exitDy=0;dashed=1;dashPattern=8 8;endFill=1;" parent="1" source="DX7jJyt_D23_pQjX9NbW-12" edge="1">
          <mxGeometry width="50" height="50" relative="1" as="geometry">
            <mxPoint x="500" y="200" as="sourcePoint" />
            <mxPoint x="820" y="210" as="targetPoint" />
          </mxGeometry>
        </mxCell>
        <mxCell id="DX7jJyt_D23_pQjX9NbW-30" value="&lt;div&gt;JUMP&lt;/div&gt;" style="edgeLabel;html=1;align=center;verticalAlign=middle;resizable=0;points=[];" parent="DX7jJyt_D23_pQjX9NbW-17" vertex="1" connectable="0">
          <mxGeometry x="-0.0141" y="-1" relative="1" as="geometry">
            <mxPoint x="-14" y="-1" as="offset" />
          </mxGeometry>
        </mxCell>
        <mxCell id="DX7jJyt_D23_pQjX9NbW-18" value="" style="endArrow=none;dashed=1;html=1;dashPattern=8 8;strokeWidth=1;rounded=0;startArrow=classic;startFill=1;" parent="1" edge="1">
          <mxGeometry width="50" height="50" relative="1" as="geometry">
            <mxPoint x="820" y="210" as="sourcePoint" />
            <mxPoint x="820" y="80" as="targetPoint" />
          </mxGeometry>
        </mxCell>
        <mxCell id="DX7jJyt_D23_pQjX9NbW-19" value="&lt;div&gt;JUMP&lt;/div&gt;(Fuse)" style="edgeLabel;html=1;align=center;verticalAlign=middle;resizable=0;points=[];" parent="DX7jJyt_D23_pQjX9NbW-18" vertex="1" connectable="0">
          <mxGeometry x="0.0657" y="-1" relative="1" as="geometry">
            <mxPoint as="offset" />
          </mxGeometry>
        </mxCell>
        <mxCell id="DX7jJyt_D23_pQjX9NbW-21" value="" style="endArrow=none;html=1;rounded=0;startArrow=classic;startFill=1;" parent="1" edge="1">
          <mxGeometry width="50" height="50" relative="1" as="geometry">
            <mxPoint x="220" y="410" as="sourcePoint" />
            <mxPoint x="220" y="320" as="targetPoint" />
          </mxGeometry>
        </mxCell>
        <mxCell id="DX7jJyt_D23_pQjX9NbW-22" value="&lt;div&gt;+24V to +BATT&lt;/div&gt;&lt;div&gt;CTRL: CHG_EN&lt;br&gt;&lt;/div&gt;" style="shape=parallelogram;perimeter=parallelogramPerimeter;whiteSpace=wrap;html=1;fixedSize=1;" parent="1" vertex="1">
          <mxGeometry x="160" y="410" width="120" height="60" as="geometry" />
        </mxCell>
        <mxCell id="DX7jJyt_D23_pQjX9NbW-23" value="" style="endArrow=classic;html=1;rounded=0;exitX=1;exitY=0.5;exitDx=0;exitDy=0;" parent="1" source="DX7jJyt_D23_pQjX9NbW-22" edge="1">
          <mxGeometry width="50" height="50" relative="1" as="geometry">
            <mxPoint x="400" y="460" as="sourcePoint" />
            <mxPoint x="380" y="440" as="targetPoint" />
          </mxGeometry>
        </mxCell>
        <mxCell id="DX7jJyt_D23_pQjX9NbW-24" value="" style="endArrow=classic;startArrow=classic;html=1;rounded=0;exitX=0.5;exitY=0;exitDx=0;exitDy=0;" parent="1" edge="1">
          <mxGeometry width="50" height="50" relative="1" as="geometry">
            <mxPoint x="380" y="550" as="sourcePoint" />
            <mxPoint x="380" y="440" as="targetPoint" />
          </mxGeometry>
        </mxCell>
        <mxCell id="DX7jJyt_D23_pQjX9NbW-45" value="(Fuse)" style="edgeLabel;html=1;align=center;verticalAlign=middle;resizable=0;points=[];" parent="DX7jJyt_D23_pQjX9NbW-24" vertex="1" connectable="0">
          <mxGeometry x="-0.0364" y="2" relative="1" as="geometry">
            <mxPoint as="offset" />
          </mxGeometry>
        </mxCell>
        <mxCell id="DX7jJyt_D23_pQjX9NbW-26" value="" style="endArrow=classic;html=1;rounded=0;startArrow=classic;startFill=1;endFill=1;" parent="1" target="DX7jJyt_D23_pQjX9NbW-27" edge="1">
          <mxGeometry width="50" height="50" relative="1" as="geometry">
            <mxPoint x="380" y="440" as="sourcePoint" />
            <mxPoint x="520" y="440" as="targetPoint" />
            <Array as="points">
              <mxPoint x="580" y="440" />
            </Array>
          </mxGeometry>
        </mxCell>
        <mxCell id="DX7jJyt_D23_pQjX9NbW-29" value="+BATT" style="edgeLabel;html=1;align=center;verticalAlign=middle;resizable=0;points=[];" parent="DX7jJyt_D23_pQjX9NbW-26" vertex="1" connectable="0">
          <mxGeometry x="-0.44" y="2" relative="1" as="geometry">
            <mxPoint as="offset" />
          </mxGeometry>
        </mxCell>
        <mxCell id="DX7jJyt_D23_pQjX9NbW-27" value="&lt;div&gt;SELECTOR&lt;/div&gt;&lt;div&gt;+BATT OR +13V&lt;/div&gt;&lt;div&gt;TO VCC&lt;br&gt;&lt;/div&gt;" style="rhombus;whiteSpace=wrap;html=1;" parent="1" vertex="1">
          <mxGeometry x="580" y="320" width="120" height="120" as="geometry" />
        </mxCell>
        <mxCell id="DX7jJyt_D23_pQjX9NbW-32" value="" style="endArrow=classic;html=1;rounded=0;entryX=0;entryY=0.5;entryDx=0;entryDy=0;endFill=1;" parent="1" target="DX7jJyt_D23_pQjX9NbW-16" edge="1">
          <mxGeometry width="50" height="50" relative="1" as="geometry">
            <mxPoint x="820" y="210" as="sourcePoint" />
            <mxPoint x="850" y="240" as="targetPoint" />
          </mxGeometry>
        </mxCell>
        <mxCell id="DX7jJyt_D23_pQjX9NbW-33" value="5V" style="edgeLabel;html=1;align=center;verticalAlign=middle;resizable=0;points=[];" parent="DX7jJyt_D23_pQjX9NbW-32" vertex="1" connectable="0">
          <mxGeometry x="-0.0788" y="-1" relative="1" as="geometry">
            <mxPoint x="9" y="-1" as="offset" />
          </mxGeometry>
        </mxCell>
        <mxCell id="DX7jJyt_D23_pQjX9NbW-34" value="" style="endArrow=classic;html=1;rounded=0;exitX=1;exitY=0.5;exitDx=0;exitDy=0;" parent="1" source="DX7jJyt_D23_pQjX9NbW-16" edge="1">
          <mxGeometry width="50" height="50" relative="1" as="geometry">
            <mxPoint x="940" y="160" as="sourcePoint" />
            <mxPoint x="820" y="80" as="targetPoint" />
            <Array as="points">
              <mxPoint x="1080" y="210" />
              <mxPoint x="1080" y="80" />
              <mxPoint x="985" y="80" />
            </Array>
          </mxGeometry>
        </mxCell>
        <mxCell id="DX7jJyt_D23_pQjX9NbW-35" value="" style="endArrow=classic;html=1;rounded=0;" parent="1" edge="1">
          <mxGeometry width="50" height="50" relative="1" as="geometry">
            <mxPoint x="700" y="380" as="sourcePoint" />
            <mxPoint x="520" y="210" as="targetPoint" />
            <Array as="points">
              <mxPoint x="750" y="380" />
              <mxPoint x="750" y="290" />
              <mxPoint x="520" y="290" />
            </Array>
          </mxGeometry>
        </mxCell>
        <mxCell id="DX7jJyt_D23_pQjX9NbW-38" value="VCC" style="edgeLabel;html=1;align=center;verticalAlign=middle;resizable=0;points=[];" parent="DX7jJyt_D23_pQjX9NbW-35" vertex="1" connectable="0">
          <mxGeometry x="0.206" y="1" relative="1" as="geometry">
            <mxPoint as="offset" />
          </mxGeometry>
        </mxCell>
        <mxCell id="DX7jJyt_D23_pQjX9NbW-40" value="BATTERY" style="shape=process;whiteSpace=wrap;html=1;backgroundOutline=1;" parent="1" vertex="1">
          <mxGeometry x="320" y="550" width="120" height="60" as="geometry" />
        </mxCell>
        <mxCell id="DX7jJyt_D23_pQjX9NbW-41" value="LOGIC" style="shape=process;whiteSpace=wrap;html=1;backgroundOutline=1;" parent="1" vertex="1">
          <mxGeometry x="820" y="290" width="120" height="60" as="geometry" />
        </mxCell>
        <mxCell id="DX7jJyt_D23_pQjX9NbW-42" value="" style="endArrow=classic;html=1;rounded=0;entryX=0.5;entryY=0;entryDx=0;entryDy=0;" parent="1" target="DX7jJyt_D23_pQjX9NbW-41" edge="1">
          <mxGeometry width="50" height="50" relative="1" as="geometry">
            <mxPoint x="880" y="220" as="sourcePoint" />
            <mxPoint x="930" y="160" as="targetPoint" />
          </mxGeometry>
        </mxCell>
        <mxCell id="DX7jJyt_D23_pQjX9NbW-43" value="" style="endArrow=classic;html=1;rounded=0;dashed=1;dashPattern=8 8;fillColor=#f8cecc;strokeColor=#000000;" parent="1" edge="1">
          <mxGeometry width="50" height="50" relative="1" as="geometry">
            <mxPoint x="580" y="440" as="sourcePoint" />
            <mxPoint x="780" y="560" as="targetPoint" />
            <Array as="points">
              <mxPoint x="580" y="500" />
              <mxPoint x="780" y="500" />
            </Array>
          </mxGeometry>
        </mxCell>
        <mxCell id="DX7jJyt_D23_pQjX9NbW-87" value="JUMP" style="edgeLabel;html=1;align=center;verticalAlign=middle;resizable=0;points=[];" parent="DX7jJyt_D23_pQjX9NbW-43" vertex="1" connectable="0">
          <mxGeometry x="0.0076" y="2" relative="1" as="geometry">
            <mxPoint as="offset" />
          </mxGeometry>
        </mxCell>
        <mxCell id="DX7jJyt_D23_pQjX9NbW-82" value="" style="endArrow=classic;html=1;rounded=0;dashed=1;dashPattern=8 8;endFill=1;entryX=0.5;entryY=0;entryDx=0;entryDy=0;exitX=0.5;exitY=1;exitDx=0;exitDy=0;fillColor=#f8cecc;strokeColor=#000000;" parent="1" source="DX7jJyt_D23_pQjX9NbW-12" target="DX7jJyt_D23_pQjX9NbW-84" edge="1">
          <mxGeometry width="50" height="50" relative="1" as="geometry">
            <mxPoint x="560" y="210" as="sourcePoint" />
            <mxPoint x="790" y="390" as="targetPoint" />
            <Array as="points">
              <mxPoint x="650" y="260" />
              <mxPoint x="780" y="260" />
            </Array>
          </mxGeometry>
        </mxCell>
        <mxCell id="DX7jJyt_D23_pQjX9NbW-85" value="JUMP" style="edgeLabel;html=1;align=center;verticalAlign=middle;resizable=0;points=[];" parent="DX7jJyt_D23_pQjX9NbW-82" vertex="1" connectable="0">
          <mxGeometry x="-0.0221" y="1" relative="1" as="geometry">
            <mxPoint x="1" y="23" as="offset" />
          </mxGeometry>
        </mxCell>
        <mxCell id="DX7jJyt_D23_pQjX9NbW-84" value="MOTOR" style="shape=process;whiteSpace=wrap;html=1;backgroundOutline=1;" parent="1" vertex="1">
          <mxGeometry x="720" y="560" width="120" height="60" as="geometry" />
        </mxCell>
        <mxCell id="DX7jJyt_D23_pQjX9NbW-88" value="Gecko Connector" style="rounded=0;whiteSpace=wrap;html=1;" parent="1" vertex="1">
          <mxGeometry x="100" y="840" width="120" height="60" as="geometry" />
        </mxCell>
        <mxCell id="DX7jJyt_D23_pQjX9NbW-90" value="+5V_SW" style="endArrow=classic;html=1;rounded=0;exitX=1;exitY=0;exitDx=0;exitDy=0;startArrow=none;startFill=0;endFill=1;" parent="1" source="DX7jJyt_D23_pQjX9NbW-88" edge="1">
          <mxGeometry width="50" height="50" relative="1" as="geometry">
            <mxPoint x="220" y="762" as="sourcePoint" />
            <mxPoint x="820" y="740" as="targetPoint" />
            <Array as="points">
              <mxPoint x="220" y="740" />
            </Array>
          </mxGeometry>
        </mxCell>
        <mxCell id="DX7jJyt_D23_pQjX9NbW-91" value="+24V" style="endArrow=classic;html=1;rounded=0;exitX=1;exitY=0;exitDx=0;exitDy=0;endFill=1;" parent="1" edge="1">
          <mxGeometry width="50" height="50" relative="1" as="geometry">
            <mxPoint x="220" y="900" as="sourcePoint" />
            <mxPoint x="220" y="980" as="targetPoint" />
          </mxGeometry>
        </mxCell>
        <mxCell id="DX7jJyt_D23_pQjX9NbW-92" value="24V to 13V" style="rounded=0;whiteSpace=wrap;html=1;" parent="1" vertex="1">
          <mxGeometry x="330" y="950" width="120" height="60" as="geometry" />
        </mxCell>
        <mxCell id="DX7jJyt_D23_pQjX9NbW-93" value="" style="endArrow=classic;html=1;rounded=0;endFill=1;entryX=0;entryY=0;entryDx=0;entryDy=0;" parent="1" target="DX7jJyt_D23_pQjX9NbW-109" edge="1">
          <mxGeometry width="50" height="50" relative="1" as="geometry">
            <mxPoint x="450" y="980" as="sourcePoint" />
            <mxPoint x="590" y="980" as="targetPoint" />
            <Array as="points">
              <mxPoint x="580" y="980" />
            </Array>
          </mxGeometry>
        </mxCell>
        <mxCell id="DX7jJyt_D23_pQjX9NbW-94" value="&lt;div&gt;+13V&lt;/div&gt;" style="edgeLabel;html=1;align=center;verticalAlign=middle;resizable=0;points=[];" parent="DX7jJyt_D23_pQjX9NbW-93" vertex="1" connectable="0">
          <mxGeometry x="0.0091" y="-1" relative="1" as="geometry">
            <mxPoint as="offset" />
          </mxGeometry>
        </mxCell>
        <mxCell id="DX7jJyt_D23_pQjX9NbW-95" value="12V to 5V" style="rounded=0;whiteSpace=wrap;html=1;" parent="1" vertex="1">
          <mxGeometry x="590" y="840" width="120" height="60" as="geometry" />
        </mxCell>
        <mxCell id="DX7jJyt_D23_pQjX9NbW-96" value="&lt;div&gt;5V to 5V_SW&lt;/div&gt;CTRL: EN_5V" style="shape=parallelogram;perimeter=parallelogramPerimeter;whiteSpace=wrap;html=1;fixedSize=1;" parent="1" vertex="1">
          <mxGeometry x="920" y="840" width="120" height="60" as="geometry" />
        </mxCell>
        <mxCell id="DX7jJyt_D23_pQjX9NbW-99" value="" style="endArrow=none;dashed=1;html=1;dashPattern=8 8;strokeWidth=1;rounded=0;startArrow=classic;startFill=1;" parent="1" edge="1">
          <mxGeometry width="50" height="50" relative="1" as="geometry">
            <mxPoint x="820" y="870" as="sourcePoint" />
            <mxPoint x="820" y="740" as="targetPoint" />
          </mxGeometry>
        </mxCell>
        <mxCell id="DX7jJyt_D23_pQjX9NbW-100" value="&lt;div&gt;JUMP&lt;/div&gt;(Fuse)" style="edgeLabel;html=1;align=center;verticalAlign=middle;resizable=0;points=[];" parent="DX7jJyt_D23_pQjX9NbW-99" vertex="1" connectable="0">
          <mxGeometry x="0.0657" y="-1" relative="1" as="geometry">
            <mxPoint as="offset" />
          </mxGeometry>
        </mxCell>
        <mxCell id="DX7jJyt_D23_pQjX9NbW-101" value="" style="endArrow=classic;html=1;rounded=0;entryX=0;entryY=0.5;entryDx=0;entryDy=0;endFill=1;" parent="1" target="DX7jJyt_D23_pQjX9NbW-92" edge="1">
          <mxGeometry width="50" height="50" relative="1" as="geometry">
            <mxPoint x="220" y="980" as="sourcePoint" />
            <mxPoint x="430" y="950" as="targetPoint" />
          </mxGeometry>
        </mxCell>
        <mxCell id="DX7jJyt_D23_pQjX9NbW-102" value="" style="endArrow=none;html=1;rounded=0;startArrow=classic;startFill=1;" parent="1" edge="1">
          <mxGeometry width="50" height="50" relative="1" as="geometry">
            <mxPoint x="220" y="1070" as="sourcePoint" />
            <mxPoint x="220" y="980" as="targetPoint" />
          </mxGeometry>
        </mxCell>
        <mxCell id="DX7jJyt_D23_pQjX9NbW-103" value="&lt;div&gt;+24V to +BATT&lt;/div&gt;&lt;div&gt;CTRL: CHG_EN&lt;br&gt;&lt;/div&gt;" style="shape=parallelogram;perimeter=parallelogramPerimeter;whiteSpace=wrap;html=1;fixedSize=1;" parent="1" vertex="1">
          <mxGeometry x="160" y="1070" width="120" height="60" as="geometry" />
        </mxCell>
        <mxCell id="DX7jJyt_D23_pQjX9NbW-104" value="" style="endArrow=classic;html=1;rounded=0;exitX=1;exitY=0.5;exitDx=0;exitDy=0;" parent="1" source="DX7jJyt_D23_pQjX9NbW-103" edge="1">
          <mxGeometry width="50" height="50" relative="1" as="geometry">
            <mxPoint x="400" y="1120" as="sourcePoint" />
            <mxPoint x="380" y="1100" as="targetPoint" />
          </mxGeometry>
        </mxCell>
        <mxCell id="DX7jJyt_D23_pQjX9NbW-105" value="" style="endArrow=classic;startArrow=classic;html=1;rounded=0;exitX=0.5;exitY=0;exitDx=0;exitDy=0;" parent="1" edge="1">
          <mxGeometry width="50" height="50" relative="1" as="geometry">
            <mxPoint x="380" y="1210" as="sourcePoint" />
            <mxPoint x="380" y="1100" as="targetPoint" />
          </mxGeometry>
        </mxCell>
        <mxCell id="DX7jJyt_D23_pQjX9NbW-106" value="(Fuse)" style="edgeLabel;html=1;align=center;verticalAlign=middle;resizable=0;points=[];" parent="DX7jJyt_D23_pQjX9NbW-105" vertex="1" connectable="0">
          <mxGeometry x="-0.0364" y="2" relative="1" as="geometry">
            <mxPoint as="offset" />
          </mxGeometry>
        </mxCell>
        <mxCell id="DX7jJyt_D23_pQjX9NbW-107" value="" style="endArrow=classic;html=1;rounded=0;startArrow=none;startFill=0;endFill=1;" parent="1" target="DX7jJyt_D23_pQjX9NbW-109" edge="1">
          <mxGeometry width="50" height="50" relative="1" as="geometry">
            <mxPoint x="380" y="1100" as="sourcePoint" />
            <mxPoint x="520" y="1100" as="targetPoint" />
            <Array as="points">
              <mxPoint x="580" y="1100" />
            </Array>
          </mxGeometry>
        </mxCell>
        <mxCell id="DX7jJyt_D23_pQjX9NbW-108" value="+BATT" style="edgeLabel;html=1;align=center;verticalAlign=middle;resizable=0;points=[];" parent="DX7jJyt_D23_pQjX9NbW-107" vertex="1" connectable="0">
          <mxGeometry x="-0.44" y="2" relative="1" as="geometry">
            <mxPoint as="offset" />
          </mxGeometry>
        </mxCell>
        <mxCell id="DX7jJyt_D23_pQjX9NbW-109" value="&lt;div&gt;SELECTOR&lt;/div&gt;&lt;div&gt;24V OR 13V&lt;/div&gt;&lt;div&gt;TO VCC&lt;br&gt;&lt;/div&gt;" style="rhombus;whiteSpace=wrap;html=1;" parent="1" vertex="1">
          <mxGeometry x="580" y="980" width="120" height="120" as="geometry" />
        </mxCell>
        <mxCell id="DX7jJyt_D23_pQjX9NbW-110" value="" style="endArrow=classic;html=1;rounded=0;entryX=0;entryY=0.5;entryDx=0;entryDy=0;endFill=1;" parent="1" target="DX7jJyt_D23_pQjX9NbW-96" edge="1">
          <mxGeometry width="50" height="50" relative="1" as="geometry">
            <mxPoint x="820" y="870" as="sourcePoint" />
            <mxPoint x="850" y="900" as="targetPoint" />
          </mxGeometry>
        </mxCell>
        <mxCell id="DX7jJyt_D23_pQjX9NbW-111" value="5V" style="edgeLabel;html=1;align=center;verticalAlign=middle;resizable=0;points=[];" parent="DX7jJyt_D23_pQjX9NbW-110" vertex="1" connectable="0">
          <mxGeometry x="-0.0788" y="-1" relative="1" as="geometry">
            <mxPoint x="9" y="-1" as="offset" />
          </mxGeometry>
        </mxCell>
        <mxCell id="DX7jJyt_D23_pQjX9NbW-112" value="" style="endArrow=classic;html=1;rounded=0;exitX=1;exitY=0.5;exitDx=0;exitDy=0;" parent="1" source="DX7jJyt_D23_pQjX9NbW-96" edge="1">
          <mxGeometry width="50" height="50" relative="1" as="geometry">
            <mxPoint x="940" y="820" as="sourcePoint" />
            <mxPoint x="820" y="740" as="targetPoint" />
            <Array as="points">
              <mxPoint x="1080" y="870" />
              <mxPoint x="1080" y="740" />
              <mxPoint x="985" y="740" />
            </Array>
          </mxGeometry>
        </mxCell>
        <mxCell id="DX7jJyt_D23_pQjX9NbW-115" value="BATTERY" style="shape=process;whiteSpace=wrap;html=1;backgroundOutline=1;" parent="1" vertex="1">
          <mxGeometry x="320" y="1210" width="120" height="60" as="geometry" />
        </mxCell>
        <mxCell id="DX7jJyt_D23_pQjX9NbW-116" value="LOGIC" style="shape=process;whiteSpace=wrap;html=1;backgroundOutline=1;" parent="1" vertex="1">
          <mxGeometry x="820" y="950" width="120" height="60" as="geometry" />
        </mxCell>
        <mxCell id="DX7jJyt_D23_pQjX9NbW-117" value="" style="endArrow=classic;html=1;rounded=0;entryX=0.5;entryY=0;entryDx=0;entryDy=0;" parent="1" target="DX7jJyt_D23_pQjX9NbW-116" edge="1">
          <mxGeometry width="50" height="50" relative="1" as="geometry">
            <mxPoint x="880" y="880" as="sourcePoint" />
            <mxPoint x="930" y="820" as="targetPoint" />
          </mxGeometry>
        </mxCell>
        <mxCell id="DX7jJyt_D23_pQjX9NbW-118" value="" style="endArrow=classic;html=1;rounded=0;dashed=1;dashPattern=8 8;fillColor=#f8cecc;strokeColor=#b85450;" parent="1" edge="1">
          <mxGeometry width="50" height="50" relative="1" as="geometry">
            <mxPoint x="580" y="1100" as="sourcePoint" />
            <mxPoint x="780" y="1220" as="targetPoint" />
            <Array as="points">
              <mxPoint x="580" y="1160" />
              <mxPoint x="780" y="1160" />
            </Array>
          </mxGeometry>
        </mxCell>
        <mxCell id="DX7jJyt_D23_pQjX9NbW-119" value="JUMP" style="edgeLabel;html=1;align=center;verticalAlign=middle;resizable=0;points=[];" parent="DX7jJyt_D23_pQjX9NbW-118" vertex="1" connectable="0">
          <mxGeometry x="0.0076" y="2" relative="1" as="geometry">
            <mxPoint as="offset" />
          </mxGeometry>
        </mxCell>
        <mxCell id="DX7jJyt_D23_pQjX9NbW-122" value="MOTOR" style="shape=process;whiteSpace=wrap;html=1;backgroundOutline=1;" parent="1" vertex="1">
          <mxGeometry x="720" y="1220" width="120" height="60" as="geometry" />
        </mxCell>
        <mxCell id="DX7jJyt_D23_pQjX9NbW-123" value="AIRBRAKES" style="text;html=1;align=center;verticalAlign=middle;resizable=0;points=[];autosize=1;strokeColor=none;fillColor=none;" parent="1" vertex="1">
          <mxGeometry x="1910" y="1085" width="90" height="30" as="geometry" />
        </mxCell>
        <mxCell id="DX7jJyt_D23_pQjX9NbW-124" value="Gecko Connector" style="rounded=0;whiteSpace=wrap;html=1;" parent="1" vertex="1">
          <mxGeometry x="100" y="1480" width="120" height="60" as="geometry" />
        </mxCell>
        <mxCell id="DX7jJyt_D23_pQjX9NbW-126" value="+5V_SW" style="endArrow=classic;html=1;rounded=0;exitX=1;exitY=0;exitDx=0;exitDy=0;startArrow=classic;startFill=1;endFill=1;" parent="1" source="DX7jJyt_D23_pQjX9NbW-124" edge="1">
          <mxGeometry width="50" height="50" relative="1" as="geometry">
            <mxPoint x="220" y="1402" as="sourcePoint" />
            <mxPoint x="820" y="1380" as="targetPoint" />
            <Array as="points">
              <mxPoint x="220" y="1380" />
            </Array>
          </mxGeometry>
        </mxCell>
        <mxCell id="DX7jJyt_D23_pQjX9NbW-127" value="+24V" style="endArrow=classic;html=1;rounded=0;exitX=1;exitY=0;exitDx=0;exitDy=0;endFill=1;" parent="1" edge="1">
          <mxGeometry width="50" height="50" relative="1" as="geometry">
            <mxPoint x="220" y="1540" as="sourcePoint" />
            <mxPoint x="220" y="1620" as="targetPoint" />
          </mxGeometry>
        </mxCell>
        <mxCell id="DX7jJyt_D23_pQjX9NbW-128" value="24V to 13V" style="rounded=0;whiteSpace=wrap;html=1;" parent="1" vertex="1">
          <mxGeometry x="330" y="1590" width="120" height="60" as="geometry" />
        </mxCell>
        <mxCell id="DX7jJyt_D23_pQjX9NbW-129" value="" style="endArrow=classic;html=1;rounded=0;endFill=1;entryX=0;entryY=0;entryDx=0;entryDy=0;" parent="1" target="DX7jJyt_D23_pQjX9NbW-145" edge="1">
          <mxGeometry width="50" height="50" relative="1" as="geometry">
            <mxPoint x="450" y="1620" as="sourcePoint" />
            <mxPoint x="590" y="1620" as="targetPoint" />
            <Array as="points">
              <mxPoint x="580" y="1620" />
            </Array>
          </mxGeometry>
        </mxCell>
        <mxCell id="DX7jJyt_D23_pQjX9NbW-130" value="&lt;div&gt;+13V&lt;/div&gt;" style="edgeLabel;html=1;align=center;verticalAlign=middle;resizable=0;points=[];" parent="DX7jJyt_D23_pQjX9NbW-129" vertex="1" connectable="0">
          <mxGeometry x="0.0091" y="-1" relative="1" as="geometry">
            <mxPoint as="offset" />
          </mxGeometry>
        </mxCell>
        <mxCell id="DX7jJyt_D23_pQjX9NbW-131" value="12V to 5V" style="rounded=0;whiteSpace=wrap;html=1;" parent="1" vertex="1">
          <mxGeometry x="590" y="1480" width="120" height="60" as="geometry" />
        </mxCell>
        <mxCell id="DX7jJyt_D23_pQjX9NbW-132" value="&lt;div&gt;5V to 5V_SW&lt;/div&gt;CTRL: EN_5V" style="shape=parallelogram;perimeter=parallelogramPerimeter;whiteSpace=wrap;html=1;fixedSize=1;" parent="1" vertex="1">
          <mxGeometry x="920" y="1480" width="120" height="60" as="geometry" />
        </mxCell>
        <mxCell id="DX7jJyt_D23_pQjX9NbW-135" value="" style="endArrow=none;dashed=1;html=1;dashPattern=8 8;strokeWidth=1;rounded=0;startArrow=classic;startFill=1;" parent="1" edge="1">
          <mxGeometry width="50" height="50" relative="1" as="geometry">
            <mxPoint x="820" y="1510" as="sourcePoint" />
            <mxPoint x="820" y="1380" as="targetPoint" />
          </mxGeometry>
        </mxCell>
        <mxCell id="DX7jJyt_D23_pQjX9NbW-136" value="&lt;div&gt;JUMP&lt;/div&gt;(Fuse)" style="edgeLabel;html=1;align=center;verticalAlign=middle;resizable=0;points=[];" parent="DX7jJyt_D23_pQjX9NbW-135" vertex="1" connectable="0">
          <mxGeometry x="0.0657" y="-1" relative="1" as="geometry">
            <mxPoint as="offset" />
          </mxGeometry>
        </mxCell>
        <mxCell id="DX7jJyt_D23_pQjX9NbW-137" value="" style="endArrow=classic;html=1;rounded=0;entryX=0;entryY=0.5;entryDx=0;entryDy=0;endFill=1;" parent="1" target="DX7jJyt_D23_pQjX9NbW-128" edge="1">
          <mxGeometry width="50" height="50" relative="1" as="geometry">
            <mxPoint x="220" y="1620" as="sourcePoint" />
            <mxPoint x="430" y="1590" as="targetPoint" />
          </mxGeometry>
        </mxCell>
        <mxCell id="DX7jJyt_D23_pQjX9NbW-138" value="" style="endArrow=none;html=1;rounded=0;startArrow=classic;startFill=1;" parent="1" edge="1">
          <mxGeometry width="50" height="50" relative="1" as="geometry">
            <mxPoint x="220" y="1710" as="sourcePoint" />
            <mxPoint x="220" y="1620" as="targetPoint" />
          </mxGeometry>
        </mxCell>
        <mxCell id="DX7jJyt_D23_pQjX9NbW-139" value="&lt;div&gt;+24V to +BATT&lt;/div&gt;&lt;div&gt;CTRL: CHG_EN&lt;br&gt;&lt;/div&gt;" style="shape=parallelogram;perimeter=parallelogramPerimeter;whiteSpace=wrap;html=1;fixedSize=1;" parent="1" vertex="1">
          <mxGeometry x="160" y="1710" width="120" height="60" as="geometry" />
        </mxCell>
        <mxCell id="DX7jJyt_D23_pQjX9NbW-140" value="" style="endArrow=classic;html=1;rounded=0;exitX=1;exitY=0.5;exitDx=0;exitDy=0;" parent="1" source="DX7jJyt_D23_pQjX9NbW-139" edge="1">
          <mxGeometry width="50" height="50" relative="1" as="geometry">
            <mxPoint x="400" y="1760" as="sourcePoint" />
            <mxPoint x="380" y="1740" as="targetPoint" />
          </mxGeometry>
        </mxCell>
        <mxCell id="DX7jJyt_D23_pQjX9NbW-141" value="" style="endArrow=classic;startArrow=classic;html=1;rounded=0;exitX=0.5;exitY=0;exitDx=0;exitDy=0;" parent="1" edge="1">
          <mxGeometry width="50" height="50" relative="1" as="geometry">
            <mxPoint x="380" y="1850" as="sourcePoint" />
            <mxPoint x="380" y="1740" as="targetPoint" />
          </mxGeometry>
        </mxCell>
        <mxCell id="DX7jJyt_D23_pQjX9NbW-142" value="(Fuse)" style="edgeLabel;html=1;align=center;verticalAlign=middle;resizable=0;points=[];" parent="DX7jJyt_D23_pQjX9NbW-141" vertex="1" connectable="0">
          <mxGeometry x="-0.0364" y="2" relative="1" as="geometry">
            <mxPoint as="offset" />
          </mxGeometry>
        </mxCell>
        <mxCell id="DX7jJyt_D23_pQjX9NbW-143" value="" style="endArrow=classic;html=1;rounded=0;startArrow=classic;startFill=1;endFill=1;" parent="1" target="DX7jJyt_D23_pQjX9NbW-145" edge="1">
          <mxGeometry width="50" height="50" relative="1" as="geometry">
            <mxPoint x="380" y="1740" as="sourcePoint" />
            <mxPoint x="520" y="1740" as="targetPoint" />
            <Array as="points">
              <mxPoint x="580" y="1740" />
            </Array>
          </mxGeometry>
        </mxCell>
        <mxCell id="DX7jJyt_D23_pQjX9NbW-144" value="+BATT" style="edgeLabel;html=1;align=center;verticalAlign=middle;resizable=0;points=[];" parent="DX7jJyt_D23_pQjX9NbW-143" vertex="1" connectable="0">
          <mxGeometry x="-0.44" y="2" relative="1" as="geometry">
            <mxPoint as="offset" />
          </mxGeometry>
        </mxCell>
        <mxCell id="DX7jJyt_D23_pQjX9NbW-145" value="&lt;div&gt;SELECTOR&lt;/div&gt;&lt;div&gt;24V OR 13V&lt;/div&gt;&lt;div&gt;TO VCC&lt;br&gt;&lt;/div&gt;" style="rhombus;whiteSpace=wrap;html=1;" parent="1" vertex="1">
          <mxGeometry x="580" y="1620" width="120" height="120" as="geometry" />
        </mxCell>
        <mxCell id="DX7jJyt_D23_pQjX9NbW-146" value="" style="endArrow=classic;html=1;rounded=0;entryX=0;entryY=0.5;entryDx=0;entryDy=0;endFill=1;" parent="1" target="DX7jJyt_D23_pQjX9NbW-132" edge="1">
          <mxGeometry width="50" height="50" relative="1" as="geometry">
            <mxPoint x="820" y="1510" as="sourcePoint" />
            <mxPoint x="850" y="1540" as="targetPoint" />
          </mxGeometry>
        </mxCell>
        <mxCell id="DX7jJyt_D23_pQjX9NbW-147" value="5V" style="edgeLabel;html=1;align=center;verticalAlign=middle;resizable=0;points=[];" parent="DX7jJyt_D23_pQjX9NbW-146" vertex="1" connectable="0">
          <mxGeometry x="-0.0788" y="-1" relative="1" as="geometry">
            <mxPoint x="9" y="-1" as="offset" />
          </mxGeometry>
        </mxCell>
        <mxCell id="DX7jJyt_D23_pQjX9NbW-148" value="" style="endArrow=classic;html=1;rounded=0;exitX=1;exitY=0.5;exitDx=0;exitDy=0;" parent="1" source="DX7jJyt_D23_pQjX9NbW-132" edge="1">
          <mxGeometry width="50" height="50" relative="1" as="geometry">
            <mxPoint x="940" y="1460" as="sourcePoint" />
            <mxPoint x="820" y="1380" as="targetPoint" />
            <Array as="points">
              <mxPoint x="1080" y="1510" />
              <mxPoint x="1080" y="1380" />
              <mxPoint x="985" y="1380" />
            </Array>
          </mxGeometry>
        </mxCell>
        <mxCell id="DX7jJyt_D23_pQjX9NbW-149" value="" style="endArrow=classic;html=1;rounded=0;dashed=1;dashPattern=8 8;" parent="1" edge="1">
          <mxGeometry width="50" height="50" relative="1" as="geometry">
            <mxPoint x="700" y="1680" as="sourcePoint" />
            <mxPoint x="500" y="1510" as="targetPoint" />
            <Array as="points">
              <mxPoint x="750" y="1680" />
              <mxPoint x="750" y="1590" />
              <mxPoint x="500" y="1590" />
            </Array>
          </mxGeometry>
        </mxCell>
        <mxCell id="DX7jJyt_D23_pQjX9NbW-150" value="JUMP" style="edgeLabel;html=1;align=center;verticalAlign=middle;resizable=0;points=[];" parent="DX7jJyt_D23_pQjX9NbW-149" vertex="1" connectable="0">
          <mxGeometry x="0.206" y="1" relative="1" as="geometry">
            <mxPoint as="offset" />
          </mxGeometry>
        </mxCell>
        <mxCell id="DX7jJyt_D23_pQjX9NbW-151" value="BATTERY" style="shape=process;whiteSpace=wrap;html=1;backgroundOutline=1;" parent="1" vertex="1">
          <mxGeometry x="320" y="1850" width="120" height="60" as="geometry" />
        </mxCell>
        <mxCell id="DX7jJyt_D23_pQjX9NbW-152" value="LOGIC" style="shape=process;whiteSpace=wrap;html=1;backgroundOutline=1;" parent="1" vertex="1">
          <mxGeometry x="820" y="1590" width="120" height="60" as="geometry" />
        </mxCell>
        <mxCell id="DX7jJyt_D23_pQjX9NbW-153" value="" style="endArrow=classic;html=1;rounded=0;entryX=0.5;entryY=0;entryDx=0;entryDy=0;" parent="1" target="DX7jJyt_D23_pQjX9NbW-152" edge="1">
          <mxGeometry width="50" height="50" relative="1" as="geometry">
            <mxPoint x="880" y="1520" as="sourcePoint" />
            <mxPoint x="930" y="1460" as="targetPoint" />
          </mxGeometry>
        </mxCell>
        <mxCell id="DX7jJyt_D23_pQjX9NbW-156" value="" style="endArrow=classic;html=1;rounded=0;dashed=1;dashPattern=8 8;endFill=1;entryX=0.5;entryY=0;entryDx=0;entryDy=0;exitX=0.5;exitY=1;exitDx=0;exitDy=0;fillColor=#f8cecc;strokeColor=#b85450;" parent="1" source="DX7jJyt_D23_pQjX9NbW-131" target="DX7jJyt_D23_pQjX9NbW-158" edge="1">
          <mxGeometry width="50" height="50" relative="1" as="geometry">
            <mxPoint x="560" y="1510" as="sourcePoint" />
            <mxPoint x="790" y="1690" as="targetPoint" />
            <Array as="points">
              <mxPoint x="650" y="1560" />
              <mxPoint x="780" y="1560" />
            </Array>
          </mxGeometry>
        </mxCell>
        <mxCell id="DX7jJyt_D23_pQjX9NbW-157" value="JUMP" style="edgeLabel;html=1;align=center;verticalAlign=middle;resizable=0;points=[];" parent="DX7jJyt_D23_pQjX9NbW-156" vertex="1" connectable="0">
          <mxGeometry x="-0.0221" y="1" relative="1" as="geometry">
            <mxPoint x="1" y="23" as="offset" />
          </mxGeometry>
        </mxCell>
        <mxCell id="DX7jJyt_D23_pQjX9NbW-158" value="MOTOR" style="shape=process;whiteSpace=wrap;html=1;backgroundOutline=1;" parent="1" vertex="1">
          <mxGeometry x="720" y="1860" width="120" height="60" as="geometry" />
        </mxCell>
        <mxCell id="DX7jJyt_D23_pQjX9NbW-159" value="PAYLOAD" style="text;html=1;align=center;verticalAlign=middle;resizable=0;points=[];autosize=1;strokeColor=none;fillColor=none;" parent="1" vertex="1">
          <mxGeometry x="900" y="1768" width="80" height="30" as="geometry" />
        </mxCell>
        <mxCell id="DX7jJyt_D23_pQjX9NbW-160" value="Gecko Connector" style="rounded=0;whiteSpace=wrap;html=1;" parent="1" vertex="1">
          <mxGeometry x="100" y="2080" width="120" height="60" as="geometry" />
        </mxCell>
        <mxCell id="DX7jJyt_D23_pQjX9NbW-162" value="+5V_SW" style="endArrow=classic;html=1;rounded=0;exitX=1;exitY=0;exitDx=0;exitDy=0;startArrow=classic;startFill=1;endFill=1;" parent="1" source="DX7jJyt_D23_pQjX9NbW-160" edge="1">
          <mxGeometry width="50" height="50" relative="1" as="geometry">
            <mxPoint x="220" y="2002" as="sourcePoint" />
            <mxPoint x="820" y="1980" as="targetPoint" />
            <Array as="points">
              <mxPoint x="220" y="1980" />
            </Array>
          </mxGeometry>
        </mxCell>
        <mxCell id="DX7jJyt_D23_pQjX9NbW-163" value="+24V" style="endArrow=classic;html=1;rounded=0;exitX=1;exitY=0;exitDx=0;exitDy=0;endFill=1;" parent="1" edge="1">
          <mxGeometry width="50" height="50" relative="1" as="geometry">
            <mxPoint x="220" y="2140" as="sourcePoint" />
            <mxPoint x="220" y="2220" as="targetPoint" />
          </mxGeometry>
        </mxCell>
        <mxCell id="DX7jJyt_D23_pQjX9NbW-164" value="24V to 13V" style="rounded=0;whiteSpace=wrap;html=1;" parent="1" vertex="1">
          <mxGeometry x="330" y="2190" width="120" height="60" as="geometry" />
        </mxCell>
        <mxCell id="DX7jJyt_D23_pQjX9NbW-165" value="" style="endArrow=classic;html=1;rounded=0;endFill=1;entryX=0;entryY=0;entryDx=0;entryDy=0;" parent="1" target="DX7jJyt_D23_pQjX9NbW-181" edge="1">
          <mxGeometry width="50" height="50" relative="1" as="geometry">
            <mxPoint x="450" y="2220" as="sourcePoint" />
            <mxPoint x="590" y="2220" as="targetPoint" />
            <Array as="points">
              <mxPoint x="580" y="2220" />
            </Array>
          </mxGeometry>
        </mxCell>
        <mxCell id="DX7jJyt_D23_pQjX9NbW-166" value="&lt;div&gt;+13V&lt;/div&gt;" style="edgeLabel;html=1;align=center;verticalAlign=middle;resizable=0;points=[];" parent="DX7jJyt_D23_pQjX9NbW-165" vertex="1" connectable="0">
          <mxGeometry x="0.0091" y="-1" relative="1" as="geometry">
            <mxPoint as="offset" />
          </mxGeometry>
        </mxCell>
        <mxCell id="DX7jJyt_D23_pQjX9NbW-167" value="12V to 5V" style="rounded=0;whiteSpace=wrap;html=1;" parent="1" vertex="1">
          <mxGeometry x="590" y="2080" width="120" height="60" as="geometry" />
        </mxCell>
        <mxCell id="DX7jJyt_D23_pQjX9NbW-168" value="&lt;div&gt;5V to 5V_SW&lt;/div&gt;CTRL: EN_5V" style="shape=parallelogram;perimeter=parallelogramPerimeter;whiteSpace=wrap;html=1;fixedSize=1;" parent="1" vertex="1">
          <mxGeometry x="920" y="2080" width="120" height="60" as="geometry" />
        </mxCell>
        <mxCell id="DX7jJyt_D23_pQjX9NbW-169" value="" style="endArrow=classic;html=1;rounded=0;exitX=1;exitY=0.5;exitDx=0;exitDy=0;dashed=1;dashPattern=8 8;endFill=1;" parent="1" source="DX7jJyt_D23_pQjX9NbW-167" edge="1">
          <mxGeometry width="50" height="50" relative="1" as="geometry">
            <mxPoint x="500" y="2100" as="sourcePoint" />
            <mxPoint x="820" y="2110" as="targetPoint" />
          </mxGeometry>
        </mxCell>
        <mxCell id="DX7jJyt_D23_pQjX9NbW-170" value="&lt;div&gt;JUMP&lt;/div&gt;" style="edgeLabel;html=1;align=center;verticalAlign=middle;resizable=0;points=[];" parent="DX7jJyt_D23_pQjX9NbW-169" vertex="1" connectable="0">
          <mxGeometry x="-0.0141" y="-1" relative="1" as="geometry">
            <mxPoint x="-14" y="-1" as="offset" />
          </mxGeometry>
        </mxCell>
        <mxCell id="DX7jJyt_D23_pQjX9NbW-173" value="" style="endArrow=classic;html=1;rounded=0;entryX=0;entryY=0.5;entryDx=0;entryDy=0;endFill=1;" parent="1" target="DX7jJyt_D23_pQjX9NbW-164" edge="1">
          <mxGeometry width="50" height="50" relative="1" as="geometry">
            <mxPoint x="220" y="2220" as="sourcePoint" />
            <mxPoint x="430" y="2190" as="targetPoint" />
          </mxGeometry>
        </mxCell>
        <mxCell id="DX7jJyt_D23_pQjX9NbW-174" value="" style="endArrow=none;html=1;rounded=0;startArrow=classic;startFill=1;" parent="1" edge="1">
          <mxGeometry width="50" height="50" relative="1" as="geometry">
            <mxPoint x="220" y="2310" as="sourcePoint" />
            <mxPoint x="220" y="2220" as="targetPoint" />
          </mxGeometry>
        </mxCell>
        <mxCell id="DX7jJyt_D23_pQjX9NbW-175" value="&lt;div&gt;+24V to +BATT&lt;/div&gt;&lt;div&gt;CTRL: CHG_EN&lt;br&gt;&lt;/div&gt;" style="shape=parallelogram;perimeter=parallelogramPerimeter;whiteSpace=wrap;html=1;fixedSize=1;" parent="1" vertex="1">
          <mxGeometry x="160" y="2310" width="120" height="60" as="geometry" />
        </mxCell>
        <mxCell id="DX7jJyt_D23_pQjX9NbW-176" value="" style="endArrow=classic;html=1;rounded=0;exitX=1;exitY=0.5;exitDx=0;exitDy=0;" parent="1" source="DX7jJyt_D23_pQjX9NbW-175" edge="1">
          <mxGeometry width="50" height="50" relative="1" as="geometry">
            <mxPoint x="400" y="2360" as="sourcePoint" />
            <mxPoint x="380" y="2340" as="targetPoint" />
          </mxGeometry>
        </mxCell>
        <mxCell id="DX7jJyt_D23_pQjX9NbW-177" value="" style="endArrow=classic;startArrow=classic;html=1;rounded=0;exitX=0.5;exitY=0;exitDx=0;exitDy=0;" parent="1" edge="1">
          <mxGeometry width="50" height="50" relative="1" as="geometry">
            <mxPoint x="380" y="2450" as="sourcePoint" />
            <mxPoint x="380" y="2340" as="targetPoint" />
          </mxGeometry>
        </mxCell>
        <mxCell id="DX7jJyt_D23_pQjX9NbW-178" value="(Fuse)" style="edgeLabel;html=1;align=center;verticalAlign=middle;resizable=0;points=[];" parent="DX7jJyt_D23_pQjX9NbW-177" vertex="1" connectable="0">
          <mxGeometry x="-0.0364" y="2" relative="1" as="geometry">
            <mxPoint as="offset" />
          </mxGeometry>
        </mxCell>
        <mxCell id="DX7jJyt_D23_pQjX9NbW-179" value="" style="endArrow=classic;html=1;rounded=0;startArrow=classic;startFill=1;endFill=1;" parent="1" target="DX7jJyt_D23_pQjX9NbW-181" edge="1">
          <mxGeometry width="50" height="50" relative="1" as="geometry">
            <mxPoint x="380" y="2340" as="sourcePoint" />
            <mxPoint x="520" y="2340" as="targetPoint" />
            <Array as="points">
              <mxPoint x="580" y="2340" />
            </Array>
          </mxGeometry>
        </mxCell>
        <mxCell id="DX7jJyt_D23_pQjX9NbW-180" value="+BATT" style="edgeLabel;html=1;align=center;verticalAlign=middle;resizable=0;points=[];" parent="DX7jJyt_D23_pQjX9NbW-179" vertex="1" connectable="0">
          <mxGeometry x="-0.44" y="2" relative="1" as="geometry">
            <mxPoint as="offset" />
          </mxGeometry>
        </mxCell>
        <mxCell id="DX7jJyt_D23_pQjX9NbW-181" value="&lt;div&gt;SELECTOR&lt;/div&gt;&lt;div&gt;24V OR 13V&lt;/div&gt;&lt;div&gt;TO VCC&lt;br&gt;&lt;/div&gt;" style="rhombus;whiteSpace=wrap;html=1;" parent="1" vertex="1">
          <mxGeometry x="580" y="2220" width="120" height="120" as="geometry" />
        </mxCell>
        <mxCell id="DX7jJyt_D23_pQjX9NbW-182" value="" style="endArrow=classic;html=1;rounded=0;entryX=0;entryY=0.5;entryDx=0;entryDy=0;endFill=1;" parent="1" target="DX7jJyt_D23_pQjX9NbW-168" edge="1">
          <mxGeometry width="50" height="50" relative="1" as="geometry">
            <mxPoint x="820" y="2110" as="sourcePoint" />
            <mxPoint x="850" y="2140" as="targetPoint" />
          </mxGeometry>
        </mxCell>
        <mxCell id="DX7jJyt_D23_pQjX9NbW-183" value="5V" style="edgeLabel;html=1;align=center;verticalAlign=middle;resizable=0;points=[];" parent="DX7jJyt_D23_pQjX9NbW-182" vertex="1" connectable="0">
          <mxGeometry x="-0.0788" y="-1" relative="1" as="geometry">
            <mxPoint x="9" y="-1" as="offset" />
          </mxGeometry>
        </mxCell>
        <mxCell id="DX7jJyt_D23_pQjX9NbW-184" value="" style="endArrow=classic;html=1;rounded=0;exitX=1;exitY=0.5;exitDx=0;exitDy=0;" parent="1" source="DX7jJyt_D23_pQjX9NbW-168" edge="1">
          <mxGeometry width="50" height="50" relative="1" as="geometry">
            <mxPoint x="940" y="2060" as="sourcePoint" />
            <mxPoint x="820" y="1980" as="targetPoint" />
            <Array as="points">
              <mxPoint x="1080" y="2110" />
              <mxPoint x="1080" y="1980" />
              <mxPoint x="985" y="1980" />
            </Array>
          </mxGeometry>
        </mxCell>
        <mxCell id="DX7jJyt_D23_pQjX9NbW-185" value="" style="endArrow=classic;html=1;rounded=0;dashed=1;dashPattern=8 8;" parent="1" edge="1">
          <mxGeometry width="50" height="50" relative="1" as="geometry">
            <mxPoint x="700" y="2280" as="sourcePoint" />
            <mxPoint x="500" y="2110" as="targetPoint" />
            <Array as="points">
              <mxPoint x="750" y="2280" />
              <mxPoint x="750" y="2190" />
              <mxPoint x="500" y="2190" />
            </Array>
          </mxGeometry>
        </mxCell>
        <mxCell id="DX7jJyt_D23_pQjX9NbW-186" value="JUMP" style="edgeLabel;html=1;align=center;verticalAlign=middle;resizable=0;points=[];" parent="DX7jJyt_D23_pQjX9NbW-185" vertex="1" connectable="0">
          <mxGeometry x="0.206" y="1" relative="1" as="geometry">
            <mxPoint as="offset" />
          </mxGeometry>
        </mxCell>
        <mxCell id="DX7jJyt_D23_pQjX9NbW-187" value="BATTERY" style="shape=process;whiteSpace=wrap;html=1;backgroundOutline=1;" parent="1" vertex="1">
          <mxGeometry x="320" y="2450" width="120" height="60" as="geometry" />
        </mxCell>
        <mxCell id="DX7jJyt_D23_pQjX9NbW-188" value="LOGIC" style="shape=process;whiteSpace=wrap;html=1;backgroundOutline=1;" parent="1" vertex="1">
          <mxGeometry x="820" y="2190" width="120" height="60" as="geometry" />
        </mxCell>
        <mxCell id="DX7jJyt_D23_pQjX9NbW-189" value="" style="endArrow=classic;html=1;rounded=0;entryX=0.5;entryY=0;entryDx=0;entryDy=0;" parent="1" target="DX7jJyt_D23_pQjX9NbW-188" edge="1">
          <mxGeometry width="50" height="50" relative="1" as="geometry">
            <mxPoint x="880" y="2120" as="sourcePoint" />
            <mxPoint x="930" y="2060" as="targetPoint" />
          </mxGeometry>
        </mxCell>
        <mxCell id="DX7jJyt_D23_pQjX9NbW-195" value="&lt;div&gt;POWER&lt;/div&gt;" style="text;html=1;align=center;verticalAlign=middle;resizable=0;points=[];autosize=1;strokeColor=none;fillColor=none;" parent="1" vertex="1">
          <mxGeometry x="825" y="2398" width="70" height="30" as="geometry" />
        </mxCell>
        <mxCell id="DX7jJyt_D23_pQjX9NbW-199" value="" style="endArrow=classic;html=1;rounded=0;entryX=-0.018;entryY=0.459;entryDx=0;entryDy=0;entryPerimeter=0;" parent="1" target="DX7jJyt_D23_pQjX9NbW-131" edge="1">
          <mxGeometry width="50" height="50" relative="1" as="geometry">
            <mxPoint x="500" y="1508" as="sourcePoint" />
            <mxPoint x="410" y="1520" as="targetPoint" />
          </mxGeometry>
        </mxCell>
        <mxCell id="DX7jJyt_D23_pQjX9NbW-200" value="VCC" style="edgeLabel;html=1;align=center;verticalAlign=middle;resizable=0;points=[];" parent="DX7jJyt_D23_pQjX9NbW-199" vertex="1" connectable="0">
          <mxGeometry x="0.0129" relative="1" as="geometry">
            <mxPoint as="offset" />
          </mxGeometry>
        </mxCell>
        <mxCell id="DX7jJyt_D23_pQjX9NbW-201" value="" style="endArrow=classic;html=1;rounded=0;dashed=1;dashPattern=8 8;exitX=1;exitY=0.5;exitDx=0;exitDy=0;fillColor=#f8cecc;strokeColor=#b85450;" parent="1" source="DX7jJyt_D23_pQjX9NbW-160" edge="1">
          <mxGeometry width="50" height="50" relative="1" as="geometry">
            <mxPoint x="225" y="2109.7" as="sourcePoint" />
            <mxPoint x="502" y="2109.7" as="targetPoint" />
          </mxGeometry>
        </mxCell>
        <mxCell id="DX7jJyt_D23_pQjX9NbW-202" value="JUMP" style="edgeLabel;html=1;align=center;verticalAlign=middle;resizable=0;points=[];" parent="DX7jJyt_D23_pQjX9NbW-201" vertex="1" connectable="0">
          <mxGeometry x="0.0054" relative="1" as="geometry">
            <mxPoint as="offset" />
          </mxGeometry>
        </mxCell>
        <mxCell id="DX7jJyt_D23_pQjX9NbW-203" value="" style="endArrow=classic;html=1;rounded=0;" parent="1" target="DX7jJyt_D23_pQjX9NbW-167" edge="1">
          <mxGeometry width="50" height="50" relative="1" as="geometry">
            <mxPoint x="502" y="2109.7" as="sourcePoint" />
            <mxPoint x="590" y="2109.7" as="targetPoint" />
          </mxGeometry>
        </mxCell>
        <mxCell id="DX7jJyt_D23_pQjX9NbW-204" value="VCC" style="edgeLabel;html=1;align=center;verticalAlign=middle;resizable=0;points=[];" parent="DX7jJyt_D23_pQjX9NbW-203" vertex="1" connectable="0">
          <mxGeometry x="0.0129" relative="1" as="geometry">
            <mxPoint as="offset" />
          </mxGeometry>
        </mxCell>
        <mxCell id="DX7jJyt_D23_pQjX9NbW-205" value="" style="endArrow=classic;html=1;rounded=0;dashed=1;dashPattern=8 8;exitX=1;exitY=0.5;exitDx=0;exitDy=0;fillColor=#f8cecc;strokeColor=#b85450;" parent="1" source="DX7jJyt_D23_pQjX9NbW-88" edge="1">
          <mxGeometry width="50" height="50" relative="1" as="geometry">
            <mxPoint x="225" y="870.73" as="sourcePoint" />
            <mxPoint x="502" y="870.73" as="targetPoint" />
          </mxGeometry>
        </mxCell>
        <mxCell id="DX7jJyt_D23_pQjX9NbW-206" value="JUMP" style="edgeLabel;html=1;align=center;verticalAlign=middle;resizable=0;points=[];" parent="DX7jJyt_D23_pQjX9NbW-205" vertex="1" connectable="0">
          <mxGeometry x="0.0054" relative="1" as="geometry">
            <mxPoint as="offset" />
          </mxGeometry>
        </mxCell>
        <mxCell id="DX7jJyt_D23_pQjX9NbW-207" value="" style="endArrow=classic;html=1;rounded=0;entryX=0;entryY=0.5;entryDx=0;entryDy=0;" parent="1" target="DX7jJyt_D23_pQjX9NbW-95" edge="1">
          <mxGeometry width="50" height="50" relative="1" as="geometry">
            <mxPoint x="502" y="869.73" as="sourcePoint" />
            <mxPoint x="590" y="869.73" as="targetPoint" />
          </mxGeometry>
        </mxCell>
        <mxCell id="DX7jJyt_D23_pQjX9NbW-208" value="VCC" style="edgeLabel;html=1;align=center;verticalAlign=middle;resizable=0;points=[];" parent="DX7jJyt_D23_pQjX9NbW-207" vertex="1" connectable="0">
          <mxGeometry x="0.0129" relative="1" as="geometry">
            <mxPoint as="offset" />
          </mxGeometry>
        </mxCell>
        <mxCell id="DX7jJyt_D23_pQjX9NbW-209" value="" style="endArrow=classic;html=1;rounded=0;dashed=1;dashPattern=8 8;exitX=1;exitY=0.5;exitDx=0;exitDy=0;fillColor=#f8cecc;strokeColor=#000000;" parent="1" edge="1">
          <mxGeometry width="50" height="50" relative="1" as="geometry">
            <mxPoint x="220" y="209.70000000000005" as="sourcePoint" />
            <mxPoint x="502" y="210.43000000000006" as="targetPoint" />
          </mxGeometry>
        </mxCell>
        <mxCell id="DX7jJyt_D23_pQjX9NbW-210" value="JUMP" style="edgeLabel;html=1;align=center;verticalAlign=middle;resizable=0;points=[];" parent="DX7jJyt_D23_pQjX9NbW-209" vertex="1" connectable="0">
          <mxGeometry x="0.0054" relative="1" as="geometry">
            <mxPoint as="offset" />
          </mxGeometry>
        </mxCell>
        <mxCell id="DX7jJyt_D23_pQjX9NbW-211" value="" style="endArrow=classic;html=1;rounded=0;entryX=0;entryY=0.5;entryDx=0;entryDy=0;" parent="1" edge="1">
          <mxGeometry width="50" height="50" relative="1" as="geometry">
            <mxPoint x="502" y="209.43000000000006" as="sourcePoint" />
            <mxPoint x="590" y="209.70000000000005" as="targetPoint" />
          </mxGeometry>
        </mxCell>
        <mxCell id="DX7jJyt_D23_pQjX9NbW-212" value="VCC" style="edgeLabel;html=1;align=center;verticalAlign=middle;resizable=0;points=[];" parent="DX7jJyt_D23_pQjX9NbW-211" vertex="1" connectable="0">
          <mxGeometry x="0.0129" relative="1" as="geometry">
            <mxPoint as="offset" />
          </mxGeometry>
        </mxCell>
        <mxCell id="xFBAMw3GaNpahQwv6nlc-1" value="" style="endArrow=classic;html=1;rounded=0;dashed=1;dashPattern=8 8;fillColor=#f8cecc;strokeColor=#b85450;entryX=0;entryY=0.5;entryDx=0;entryDy=0;" parent="1" target="DX7jJyt_D23_pQjX9NbW-8" edge="1">
          <mxGeometry width="50" height="50" relative="1" as="geometry">
            <mxPoint x="220" y="320" as="sourcePoint" />
            <mxPoint x="500" y="210" as="targetPoint" />
            <Array as="points" />
          </mxGeometry>
        </mxCell>
        <mxCell id="xFBAMw3GaNpahQwv6nlc-2" value="JUMP" style="edgeLabel;html=1;align=center;verticalAlign=middle;resizable=0;points=[];" parent="xFBAMw3GaNpahQwv6nlc-1" vertex="1" connectable="0">
          <mxGeometry x="0.206" y="1" relative="1" as="geometry">
            <mxPoint as="offset" />
          </mxGeometry>
        </mxCell>
        <mxCell id="xFBAMw3GaNpahQwv6nlc-41" value="Gecko Connector" style="rounded=0;whiteSpace=wrap;html=1;" parent="1" vertex="1">
          <mxGeometry x="1150" y="840" width="120" height="60" as="geometry" />
        </mxCell>
        <mxCell id="xFBAMw3GaNpahQwv6nlc-42" value="+5V_SW" style="endArrow=classic;html=1;rounded=0;exitX=1;exitY=0;exitDx=0;exitDy=0;startArrow=classic;startFill=1;endFill=1;" parent="1" source="xFBAMw3GaNpahQwv6nlc-41" edge="1">
          <mxGeometry width="50" height="50" relative="1" as="geometry">
            <mxPoint x="1270" y="762" as="sourcePoint" />
            <mxPoint x="1870" y="740" as="targetPoint" />
            <Array as="points">
              <mxPoint x="1270" y="740" />
            </Array>
          </mxGeometry>
        </mxCell>
        <mxCell id="xFBAMw3GaNpahQwv6nlc-43" value="+24V" style="endArrow=classic;html=1;rounded=0;exitX=1;exitY=0;exitDx=0;exitDy=0;endFill=1;" parent="1" edge="1">
          <mxGeometry width="50" height="50" relative="1" as="geometry">
            <mxPoint x="1270" y="900" as="sourcePoint" />
            <mxPoint x="1270" y="980" as="targetPoint" />
          </mxGeometry>
        </mxCell>
        <mxCell id="xFBAMw3GaNpahQwv6nlc-44" value="24V to 13V" style="rounded=0;whiteSpace=wrap;html=1;" parent="1" vertex="1">
          <mxGeometry x="1380" y="950" width="120" height="60" as="geometry" />
        </mxCell>
        <mxCell id="xFBAMw3GaNpahQwv6nlc-45" value="" style="endArrow=classic;html=1;rounded=0;endFill=1;entryX=0;entryY=0;entryDx=0;entryDy=0;" parent="1" target="xFBAMw3GaNpahQwv6nlc-60" edge="1">
          <mxGeometry width="50" height="50" relative="1" as="geometry">
            <mxPoint x="1500" y="980" as="sourcePoint" />
            <mxPoint x="1640" y="980" as="targetPoint" />
            <Array as="points">
              <mxPoint x="1630" y="980" />
            </Array>
          </mxGeometry>
        </mxCell>
        <mxCell id="xFBAMw3GaNpahQwv6nlc-46" value="&lt;div&gt;+13V&lt;/div&gt;" style="edgeLabel;html=1;align=center;verticalAlign=middle;resizable=0;points=[];" parent="xFBAMw3GaNpahQwv6nlc-45" vertex="1" connectable="0">
          <mxGeometry x="0.0091" y="-1" relative="1" as="geometry">
            <mxPoint as="offset" />
          </mxGeometry>
        </mxCell>
        <mxCell id="xFBAMw3GaNpahQwv6nlc-47" value="12V to 5V" style="rounded=0;whiteSpace=wrap;html=1;" parent="1" vertex="1">
          <mxGeometry x="1640" y="840" width="120" height="60" as="geometry" />
        </mxCell>
        <mxCell id="xFBAMw3GaNpahQwv6nlc-48" value="&lt;div&gt;5V to 5V_SW&lt;/div&gt;CTRL: EN_5V" style="shape=parallelogram;perimeter=parallelogramPerimeter;whiteSpace=wrap;html=1;fixedSize=1;" parent="1" vertex="1">
          <mxGeometry x="1970" y="840" width="120" height="60" as="geometry" />
        </mxCell>
        <mxCell id="xFBAMw3GaNpahQwv6nlc-51" value="" style="endArrow=none;dashed=1;html=1;dashPattern=8 8;strokeWidth=1;rounded=0;startArrow=classic;startFill=1;" parent="1" edge="1">
          <mxGeometry width="50" height="50" relative="1" as="geometry">
            <mxPoint x="1870" y="870" as="sourcePoint" />
            <mxPoint x="1870" y="740" as="targetPoint" />
          </mxGeometry>
        </mxCell>
        <mxCell id="xFBAMw3GaNpahQwv6nlc-52" value="&lt;div&gt;JUMP&lt;/div&gt;(Fuse)" style="edgeLabel;html=1;align=center;verticalAlign=middle;resizable=0;points=[];" parent="xFBAMw3GaNpahQwv6nlc-51" vertex="1" connectable="0">
          <mxGeometry x="0.0657" y="-1" relative="1" as="geometry">
            <mxPoint as="offset" />
          </mxGeometry>
        </mxCell>
        <mxCell id="xFBAMw3GaNpahQwv6nlc-53" value="" style="endArrow=none;html=1;rounded=0;startArrow=classic;startFill=1;" parent="1" edge="1">
          <mxGeometry width="50" height="50" relative="1" as="geometry">
            <mxPoint x="1270" y="1070" as="sourcePoint" />
            <mxPoint x="1270" y="980" as="targetPoint" />
          </mxGeometry>
        </mxCell>
        <mxCell id="xFBAMw3GaNpahQwv6nlc-54" value="&lt;div&gt;+24V to +BATT&lt;/div&gt;&lt;div&gt;CTRL: CHG_EN&lt;br&gt;&lt;/div&gt;" style="shape=parallelogram;perimeter=parallelogramPerimeter;whiteSpace=wrap;html=1;fixedSize=1;" parent="1" vertex="1">
          <mxGeometry x="1210" y="1070" width="120" height="60" as="geometry" />
        </mxCell>
        <mxCell id="xFBAMw3GaNpahQwv6nlc-55" value="" style="endArrow=classic;html=1;rounded=0;exitX=1;exitY=0.5;exitDx=0;exitDy=0;" parent="1" source="xFBAMw3GaNpahQwv6nlc-54" edge="1">
          <mxGeometry width="50" height="50" relative="1" as="geometry">
            <mxPoint x="1450" y="1120" as="sourcePoint" />
            <mxPoint x="1430" y="1100" as="targetPoint" />
          </mxGeometry>
        </mxCell>
        <mxCell id="xFBAMw3GaNpahQwv6nlc-56" value="" style="endArrow=classic;startArrow=classic;html=1;rounded=0;exitX=0.5;exitY=0;exitDx=0;exitDy=0;" parent="1" edge="1">
          <mxGeometry width="50" height="50" relative="1" as="geometry">
            <mxPoint x="1430" y="1210" as="sourcePoint" />
            <mxPoint x="1430" y="1100" as="targetPoint" />
          </mxGeometry>
        </mxCell>
        <mxCell id="xFBAMw3GaNpahQwv6nlc-57" value="(Fuse)" style="edgeLabel;html=1;align=center;verticalAlign=middle;resizable=0;points=[];" parent="xFBAMw3GaNpahQwv6nlc-56" vertex="1" connectable="0">
          <mxGeometry x="-0.0364" y="2" relative="1" as="geometry">
            <mxPoint as="offset" />
          </mxGeometry>
        </mxCell>
        <mxCell id="xFBAMw3GaNpahQwv6nlc-58" value="" style="endArrow=classic;html=1;rounded=0;startArrow=classic;startFill=1;endFill=1;" parent="1" target="xFBAMw3GaNpahQwv6nlc-60" edge="1">
          <mxGeometry width="50" height="50" relative="1" as="geometry">
            <mxPoint x="1430" y="1100" as="sourcePoint" />
            <mxPoint x="1570" y="1100" as="targetPoint" />
            <Array as="points">
              <mxPoint x="1630" y="1100" />
            </Array>
          </mxGeometry>
        </mxCell>
        <mxCell id="xFBAMw3GaNpahQwv6nlc-59" value="+BATT" style="edgeLabel;html=1;align=center;verticalAlign=middle;resizable=0;points=[];" parent="xFBAMw3GaNpahQwv6nlc-58" vertex="1" connectable="0">
          <mxGeometry x="-0.44" y="2" relative="1" as="geometry">
            <mxPoint as="offset" />
          </mxGeometry>
        </mxCell>
        <mxCell id="xFBAMw3GaNpahQwv6nlc-60" value="&lt;div&gt;SELECTOR&lt;/div&gt;&lt;div&gt;+BATT OR +13V&lt;/div&gt;&lt;div&gt;TO VCC&lt;br&gt;&lt;/div&gt;" style="rhombus;whiteSpace=wrap;html=1;" parent="1" vertex="1">
          <mxGeometry x="1630" y="980" width="120" height="120" as="geometry" />
        </mxCell>
        <mxCell id="xFBAMw3GaNpahQwv6nlc-61" value="" style="endArrow=classic;html=1;rounded=0;entryX=0;entryY=0.5;entryDx=0;entryDy=0;endFill=1;" parent="1" target="xFBAMw3GaNpahQwv6nlc-48" edge="1">
          <mxGeometry width="50" height="50" relative="1" as="geometry">
            <mxPoint x="1870" y="870" as="sourcePoint" />
            <mxPoint x="1900" y="900" as="targetPoint" />
          </mxGeometry>
        </mxCell>
        <mxCell id="xFBAMw3GaNpahQwv6nlc-62" value="5V" style="edgeLabel;html=1;align=center;verticalAlign=middle;resizable=0;points=[];" parent="xFBAMw3GaNpahQwv6nlc-61" vertex="1" connectable="0">
          <mxGeometry x="-0.0788" y="-1" relative="1" as="geometry">
            <mxPoint x="9" y="-1" as="offset" />
          </mxGeometry>
        </mxCell>
        <mxCell id="xFBAMw3GaNpahQwv6nlc-63" value="" style="endArrow=classic;html=1;rounded=0;exitX=1;exitY=0.5;exitDx=0;exitDy=0;" parent="1" source="xFBAMw3GaNpahQwv6nlc-48" edge="1">
          <mxGeometry width="50" height="50" relative="1" as="geometry">
            <mxPoint x="1990" y="820" as="sourcePoint" />
            <mxPoint x="1870" y="740" as="targetPoint" />
            <Array as="points">
              <mxPoint x="2130" y="870" />
              <mxPoint x="2130" y="740" />
              <mxPoint x="2035" y="740" />
            </Array>
          </mxGeometry>
        </mxCell>
        <mxCell id="xFBAMw3GaNpahQwv6nlc-64" value="" style="endArrow=classic;html=1;rounded=0;" parent="1" edge="1">
          <mxGeometry width="50" height="50" relative="1" as="geometry">
            <mxPoint x="1750" y="1040" as="sourcePoint" />
            <mxPoint x="1570" y="870" as="targetPoint" />
            <Array as="points">
              <mxPoint x="1800" y="1040" />
              <mxPoint x="1800" y="950" />
              <mxPoint x="1570" y="950" />
            </Array>
          </mxGeometry>
        </mxCell>
        <mxCell id="xFBAMw3GaNpahQwv6nlc-65" value="VCC" style="edgeLabel;html=1;align=center;verticalAlign=middle;resizable=0;points=[];" parent="xFBAMw3GaNpahQwv6nlc-64" vertex="1" connectable="0">
          <mxGeometry x="0.206" y="1" relative="1" as="geometry">
            <mxPoint as="offset" />
          </mxGeometry>
        </mxCell>
        <mxCell id="xFBAMw3GaNpahQwv6nlc-66" value="BATTERY" style="shape=process;whiteSpace=wrap;html=1;backgroundOutline=1;" parent="1" vertex="1">
          <mxGeometry x="1370" y="1210" width="120" height="60" as="geometry" />
        </mxCell>
        <mxCell id="xFBAMw3GaNpahQwv6nlc-67" value="LOGIC" style="shape=process;whiteSpace=wrap;html=1;backgroundOutline=1;" parent="1" vertex="1">
          <mxGeometry x="1870" y="950" width="120" height="60" as="geometry" />
        </mxCell>
        <mxCell id="xFBAMw3GaNpahQwv6nlc-68" value="" style="endArrow=classic;html=1;rounded=0;entryX=0.5;entryY=0;entryDx=0;entryDy=0;" parent="1" target="xFBAMw3GaNpahQwv6nlc-67" edge="1">
          <mxGeometry width="50" height="50" relative="1" as="geometry">
            <mxPoint x="1930" y="880" as="sourcePoint" />
            <mxPoint x="1980" y="820" as="targetPoint" />
          </mxGeometry>
        </mxCell>
        <mxCell id="xFBAMw3GaNpahQwv6nlc-69" value="" style="endArrow=classic;html=1;rounded=0;dashed=1;dashPattern=8 8;fillColor=#f8cecc;strokeColor=#b85450;" parent="1" edge="1">
          <mxGeometry width="50" height="50" relative="1" as="geometry">
            <mxPoint x="1630" y="1100" as="sourcePoint" />
            <mxPoint x="1830" y="1220" as="targetPoint" />
            <Array as="points">
              <mxPoint x="1630" y="1160" />
              <mxPoint x="1830" y="1160" />
            </Array>
          </mxGeometry>
        </mxCell>
        <mxCell id="xFBAMw3GaNpahQwv6nlc-70" value="JUMP" style="edgeLabel;html=1;align=center;verticalAlign=middle;resizable=0;points=[];" parent="xFBAMw3GaNpahQwv6nlc-69" vertex="1" connectable="0">
          <mxGeometry x="0.0076" y="2" relative="1" as="geometry">
            <mxPoint as="offset" />
          </mxGeometry>
        </mxCell>
        <mxCell id="xFBAMw3GaNpahQwv6nlc-73" value="MOTOR" style="shape=process;whiteSpace=wrap;html=1;backgroundOutline=1;" parent="1" vertex="1">
          <mxGeometry x="1770" y="1220" width="120" height="60" as="geometry" />
        </mxCell>
        <mxCell id="xFBAMw3GaNpahQwv6nlc-74" value="" style="endArrow=classic;html=1;rounded=0;dashed=1;dashPattern=8 8;exitX=1;exitY=0.5;exitDx=0;exitDy=0;fillColor=#f8cecc;strokeColor=#b85450;" parent="1" edge="1">
          <mxGeometry width="50" height="50" relative="1" as="geometry">
            <mxPoint x="1270" y="869.7" as="sourcePoint" />
            <mxPoint x="1552" y="870.4300000000001" as="targetPoint" />
          </mxGeometry>
        </mxCell>
        <mxCell id="xFBAMw3GaNpahQwv6nlc-75" value="JUMP" style="edgeLabel;html=1;align=center;verticalAlign=middle;resizable=0;points=[];" parent="xFBAMw3GaNpahQwv6nlc-74" vertex="1" connectable="0">
          <mxGeometry x="0.0054" relative="1" as="geometry">
            <mxPoint as="offset" />
          </mxGeometry>
        </mxCell>
        <mxCell id="xFBAMw3GaNpahQwv6nlc-76" value="" style="endArrow=classic;html=1;rounded=0;entryX=0;entryY=0.5;entryDx=0;entryDy=0;" parent="1" edge="1">
          <mxGeometry width="50" height="50" relative="1" as="geometry">
            <mxPoint x="1552" y="869.4300000000001" as="sourcePoint" />
            <mxPoint x="1640" y="869.7" as="targetPoint" />
          </mxGeometry>
        </mxCell>
        <mxCell id="xFBAMw3GaNpahQwv6nlc-77" value="VCC" style="edgeLabel;html=1;align=center;verticalAlign=middle;resizable=0;points=[];" parent="xFBAMw3GaNpahQwv6nlc-76" vertex="1" connectable="0">
          <mxGeometry x="0.0129" relative="1" as="geometry">
            <mxPoint as="offset" />
          </mxGeometry>
        </mxCell>
        <mxCell id="xFBAMw3GaNpahQwv6nlc-78" value="" style="endArrow=classic;html=1;rounded=0;dashed=1;dashPattern=8 8;fillColor=#f8cecc;strokeColor=#b85450;entryX=0;entryY=0.5;entryDx=0;entryDy=0;" parent="1" target="xFBAMw3GaNpahQwv6nlc-44" edge="1">
          <mxGeometry width="50" height="50" relative="1" as="geometry">
            <mxPoint x="1270" y="980" as="sourcePoint" />
            <mxPoint x="1550" y="870" as="targetPoint" />
            <Array as="points" />
          </mxGeometry>
        </mxCell>
        <mxCell id="xFBAMw3GaNpahQwv6nlc-79" value="JUMP" style="edgeLabel;html=1;align=center;verticalAlign=middle;resizable=0;points=[];" parent="xFBAMw3GaNpahQwv6nlc-78" vertex="1" connectable="0">
          <mxGeometry x="0.206" y="1" relative="1" as="geometry">
            <mxPoint as="offset" />
          </mxGeometry>
        </mxCell>
        <mxCell id="Tl8YRrMWTI3Bt2fQFJ1H-1" value="AIRBRAKES" style="text;html=1;align=center;verticalAlign=middle;whiteSpace=wrap;rounded=0;" vertex="1" parent="1">
          <mxGeometry x="835" y="1080" width="60" height="30" as="geometry" />
        </mxCell>
        <mxCell id="Tl8YRrMWTI3Bt2fQFJ1H-2" value="DEFAULT" style="text;html=1;align=center;verticalAlign=middle;whiteSpace=wrap;rounded=0;" vertex="1" parent="1">
          <mxGeometry x="870" y="400" width="60" height="30" as="geometry" />
        </mxCell>
      </root>
    </mxGraphModel>
  </diagram>
</mxfile>
